<?xml version="1.0" encoding="utf-8"?>
<!-- Generator: Adobe Illustrator 22.1.0, SVG Export Plug-In . SVG Version: 6.00 Build 0)  -->
<svg version="1.1" id="Layer_1" xmlns="http://www.w3.org/2000/svg" xmlns:xlink="http://www.w3.org/1999/xlink" x="0px" y="0px"
	 viewBox="0 0 1920 1080" style="enable-background:new 0 0 1920 1080;" xml:space="preserve">
<style type="text/css">
	.st0{fill:#3C3F50;}
	.st1{fill:#998675;}
	.st2{fill:#E9908A;}
	.st3{fill:#D6B299;}
	.st4{fill:#D8B299;}
	.st5{fill:#C7B299;}
	.st6{fill:#CCE2E9;}
	.st7{fill:#E4E2E9;}
	.st8{fill:#607490;}
	.st9{fill:#E6E6E6;}
	.st10{opacity:0.56;fill:#66689A;}
	.st11{fill:#D6B299;}
</style>
<rect x="659" class="st0" width="1261" height="1080"/>
<rect x="-245.4" y="-198.7" transform="matrix(0.8979 -0.4401 0.4401 0.8979 -239.5089 222.4618)" class="st1" width="1210.6" height="1652.8"/>
<polygon class="st2" points="696.6,-62.9 342.7,-215.5 -79.3,-8.7 -272.1,438.6 1267.7,1102.4 "/>
<g>
	<g>
		<g>
			<polygon class="st3" points="376.3,419.9 353.2,448.4 252.8,448.4 148.5,420 147,314.1 230.8,297.8 322.1,299.9 			"/>
		</g>
		<g>
			<polygon class="st4" points="247.5,298.5 232.2,298.5 148.5,314.8 149.9,420.7 254.3,449.1 322.6,449.1 			"/>
		</g>
		<g>
			<polygon class="st5" points="148.5,413.1 148.6,420.7 252.9,449.1 353.3,449.1 376.4,420.6 373.5,413.1 			"/>
		</g>
	</g>
	<g id="XMLID_11797_">
		<g id="XMLID_11798_">
			<polygon id="XMLID_13162_" class="st6" points="30.8,294.9 30.9,435.8 155.2,426 152.5,309.4 			"/>
		</g>
	</g>
	<polygon class="st7" points="128.7,306.5 31.1,294.9 31.2,435.8 98.5,430.5 	"/>
	<g>
		<g id="XMLID_11792_">
			<g id="XMLID_11793_">
				<polygon id="XMLID_13161_" class="st0" points="-0.2,279 0,452 104.4,438.2 104.4,294.4 				"/>
			</g>
		</g>
		<polygon class="st8" points="104.4,324.1 104.4,294.4 -0.2,279 0,441.8 		"/>
	</g>
</g>
<g>
	<g>
		<polygon class="st3" points="507.8,804.4 523.7,837.4 481.1,928.3 411.2,1010.7 314.7,967.1 335.4,884.4 376,802.6 		"/>
	</g>
	<g>
		<polygon class="st4" points="343.2,869.5 336.7,883.3 315.9,966.1 412.4,1009.7 482.4,927.3 511.4,865.4 		"/>
	</g>
	<g>
		<polygon class="st5" points="404.9,1007.8 411.8,1010.9 481.8,928.5 524.4,837.6 508.4,804.6 500.4,804 		"/>
	</g>
</g>
<g id="XMLID_4_">
	<g id="XMLID_5_">
		<polygon id="XMLID_6_" class="st6" points="248,1064.2 375.6,1123.9 419.5,1007.2 312.7,960.1 		"/>
	</g>
</g>
<polygon class="st7" points="300,980.5 248.1,1063.9 375.8,1123.6 399.5,1060.4 "/>
<g>
	<g id="XMLID_1_">
		<g id="XMLID_2_">
			<polygon id="XMLID_3_" class="st0" points="220.4,1085.5 377.1,1158.8 409,1058.4 278.8,997.4 			"/>
		</g>
	</g>
	<polygon class="st8" points="305.6,1010 278.8,997.4 220.4,1085.5 367.9,1154.5 	"/>
</g>
<rect x="382" y="375" transform="matrix(-0.4401 -0.8979 0.8979 -0.4401 229.4545 1271.0708)" class="st9" width="258" height="378"/>
<g>
	<path class="st10" d="M1455.1,597.7L1455.1,597.7c-10.7,9-26.6,7.5-35.6-3.2l-79.2-94.8c-9-10.7-7.5-26.6,3.2-35.6v0
		c10.7-9,26.6-7.5,35.6,3.2l79.2,94.8C1467.2,572.9,1465.8,588.8,1455.1,597.7z"/>
	<path class="st10" d="M1194.5,284.2L1194.5,284.2c-10.7,9-26.6,7.5-35.6-3.2l-79.2-94.8c-9-10.7-7.5-26.6,3.2-35.6v0
		c10.7-9,26.6-7.5,35.6,3.2l79.2,94.8C1206.6,259.3,1205.2,275.3,1194.5,284.2z"/>
	<path class="st10" d="M1349.3,300.5L1349.3,300.5c9,10.7,24.9,12.1,35.6,3.2l94.8-79.2c10.7-9,12.1-24.9,3.2-35.6v0
		c-9-10.7-24.9-12.1-35.6-3.2l-94.8,79.2C1341.8,273.8,1340.3,289.7,1349.3,300.5z"/>
	<path class="st10" d="M1051.9,559.3L1051.9,559.3c9,10.7,24.9,12.1,35.6,3.2l94.8-79.2c10.7-9,12.1-24.9,3.2-35.6v0
		c-9-10.7-24.9-12.1-35.6-3.2l-94.8,79.2C1044.4,532.7,1042.9,548.6,1051.9,559.3z"/>
	<path class="st10" d="M1447.7,451.8L1447.7,451.8c-44.3,99.5-160.8,144.2-260.2,99.9l0,0c-99.5-44.3-144.2-160.8-99.9-260.2l0,0
		c44.3-99.5,160.8-144.2,260.2-99.9l0,0C1447.2,235.9,1491.9,352.4,1447.7,451.8z"/>
	<path class="st10" d="M1249,340.3l-99.2-126.7c-26.3,19.5-48.1,45.9-62.3,77.9l0,0c-44.3,99.5,0.5,216,99.9,260.2l0,0
		c20.1,8.9,40.8,14.2,61.6,16.2V340.3z"/>
</g>
<path class="st1" d="M1434.5,598.4L1434.5,598.4c-9.5,8-23.7,6.7-31.7-2.8l-70.6-84.4c-8-9.5-6.7-23.7,2.8-31.7l0,0
	c9.5-8,23.7-6.7,31.7,2.8l70.6,84.4C1445.3,576.2,1444,590.4,1434.5,598.4z"/>
<path class="st1" d="M1202.4,319.2L1202.4,319.2c-9.5,8-23.7,6.7-31.7-2.8l-70.6-84.4c-8-9.5-6.7-23.7,2.8-31.7v0
	c9.5-8,23.7-6.7,31.7,2.8l70.6,84.4C1213.2,297.1,1212,311.3,1202.4,319.2z"/>
<path class="st1" d="M1340.3,333.7L1340.3,333.7c8,9.5,22.2,10.8,31.7,2.8l84.4-70.6c9.5-8,10.8-22.2,2.8-31.7v0
	c-8-9.5-22.2-10.8-31.7-2.8l-84.4,70.6C1333.6,310,1332.3,324.2,1340.3,333.7z"/>
<path class="st1" d="M1075.5,564.2L1075.5,564.2c8,9.5,22.2,10.8,31.7,2.8l84.4-70.6c9.5-8,10.8-22.2,2.8-31.7v0
	c-8-9.5-22.2-10.8-31.7-2.8l-84.4,70.6C1068.8,540.5,1067.5,554.7,1075.5,564.2z"/>
<path class="st5" d="M1427.9,468.5L1427.9,468.5c-39.4,88.6-143.2,128.4-231.7,89l0,0c-88.5-39.4-128.4-143.2-89-231.7l0,0
	c39.4-88.5,143.2-128.4,231.7-89l0,0C1427.5,276.2,1467.3,379.9,1427.9,468.5z"/>
<path class="st11" d="M1251,369.1l-88.3-112.8c-23.4,17.4-42.8,40.9-55.5,69.4l0,0c-39.4,88.5,0.4,192.3,89,231.7l0,0
	c17.9,8,36.4,12.7,54.8,14.4V369.1z"/>
</svg>
