<?xml version="1.0" encoding="utf-8"?><svg version="1.2" baseProfile="tiny" xmlns="http://www.w3.org/2000/svg" xmlns:xlink="http://www.w3.org/1999/xlink" viewBox="0 0 500 500" xml:space="preserve"><path fill="none" stroke="#57c192" stroke-width="14" stroke-miterlimit="15" d="M330.0906982,436.6913452 c-29.2236328,14.1240845-62.0078735,22.0417786-96.6414185,22.0417786 c-122.8096695,0-222.3665771-99.5568848-222.3665771-222.3665619S110.6396103,14,233.4492798,14 s222.3665771,99.5569,222.3665771,222.3665619c0,32.8893585-7.1403198,64.1110077-19.9553223,92.1993256"/><path fill="#FFFFFF" stroke="#57c192" stroke-width="5" stroke-miterlimit="10" d="M330.0906982,436.6913452"/><g><path fill="#57c192" d="M226.5004883,316.2597656h49.8803711c3.8398438,0,7.1621094,1.34375,9.9609375,4.0302734c2.796875,2.6884766,4.1972656,5.9511719,4.1972656,9.7880859c0,3.8408203-1.3984375,7.1025391-4.1953125,9.7890625c-2.796875,2.6884766-6.1152344,4.0302734-9.953125,4.0302734h-51.6557617c-6.5805664,0-13.3818359-2.0820313-20.3994141-6.2509766c-7.0200195-4.1669922-11.9013672-8.8271484-14.6416016-13.984375l-31.9150391-61.6914063c-4.2773438-8.8837891-6.4160156-17.9853516-6.4160156-27.3085938c0-10.3076172,2.0283203-19.2480469,6.0869141-26.8154297l32.2441406-61.0336914c3.0693359-5.7011719,7.8398438-10.71875,14.3125-15.0527344c6.4697266-4.331543,12.7211914-6.4980469,18.7543945-6.4980469h54.6181641c3.8378906,0,7.0996094,1.3725586,9.7871094,4.112793c2.6875,2.7426758,4.03125,5.9785156,4.03125,9.7060547c0,3.840332-1.34375,7.15625-4.0273438,9.9526367c-2.6875,2.796875-5.9492188,4.1953125-9.7832031,4.1953125h-52.6186523c-4.3852539,0.0126953-7.953125,2.59375-10.6982422,7.7446289l-30.6533203,57.2216797c-2.418457,4.4960938-3.6162109,9.8193359-3.5932617,15.9707031c-0.015625,6.4824219,1.2905273,12.1918945,3.9223633,17.1269531l29.2626953,56.2705078C215.7485352,313.3779297,220.2441406,316.2773438,226.5004883,316.2597656z"/></g><path fill="none" stroke="#57c192" stroke-width="5" stroke-miterlimit="10" d="M384.7871704,321.4111328"/><path fill="none" stroke="#57c192" stroke-width="5" stroke-miterlimit="10" d="M332.4006348,356.6566772"/><path fill="none" stroke="#57c192" stroke-width="14" stroke-miterlimit="15" d="M388.2760925,324.2346497 c4.5058594-1.1175537,9.1635132-1.8803406,13.9444885-2.2550354c46.8712769-3.6733398,87.8458252,31.3454895,91.5191956,78.2167664 c3.6733398,46.8713074-31.3454895,87.8458252-78.2167664,91.5191956s-87.8458252-31.345459-91.5191956-78.2167664 c-1.1361694-14.4971619,1.4291687-28.4302063,6.9017944-40.8699036"/><circle fill="#57c192" cx="355.8261719" cy="341.6884155" r="22.4612675"/></svg>